<?xml version="1.0" encoding="UTF-8"?>
<svg id="Calque_1" xmlns="http://www.w3.org/2000/svg" version="1.1" viewBox="0 0 888 160">
  <!-- Generator: Adobe Illustrator 29.0.1, SVG Export Plug-In . SVG Version: 2.1.0 Build 192)  -->
  <defs>
    <style>
      .st0 {
        fill: #1a1818;
      }

      .st1 {
        fill: #e5e5e5;
      }

      .st2 {
        fill: #515151;
      }
    </style>
  </defs>
  <rect class="st1" y="0" width="888" height="160"/>
  <path class="st0" d="M293.7,93.4h3.3c.4.7.5,1.4.5,2.2s-.1,1.2-.4,1.5-.9.4-1.7.4h-12.6c-.3-.8-.5-1.6-.5-2.4s.1-1.1.4-1.3.7-.4,1.4-.4h.8c.1-3.5.2-7,.2-10.5s-.4-6.9-1.1-8.3c-.8-1.4-2-2.1-3.7-2.1s-2,.4-2.8,1.3c-.8.8-1.2,2.6-1.2,5.3v6.1c0,2.5,0,5.3.2,8.3h2.2c.3.7.5,1.4.5,2.2s-.1,1.2-.4,1.5-.9.4-1.7.4h-12.9c-.4-.8-.5-1.6-.5-2.4s.1-1.1.4-1.3c.3-.3.7-.4,1.4-.4h2.2c.1-3.3.2-6.8.2-10.3,0-5.7-.3-9-.8-10s-1.5-1.5-2.8-1.5c-.4-.8-.5-1.6-.5-2.4s.3-1.2.8-1.4c.5-.2,3.9-.4,10-.6.1.8.1,2,0,3.5,2.2-1.4,4.3-2.4,6.2-2.9,1.9-.6,3.6-.9,5-.9s3.5.3,4.6.9,1.8,1.4,2.3,2.4c1.8-1.1,3.7-2,5.5-2.5,1.9-.6,3.5-.8,4.9-.8,2.6,0,4.7.6,6,1.9,1.4,1.3,2.1,3.8,2.1,7.6,0,9.9.2,15.3.5,16.1.4.8,1.2,1.2,2.4,1.1.3.7.5,1.5.5,2.3s-.2,1.2-.7,1.5-1.4.4-2.7.4c-3.3,0-5.3,0-6.2-.2s-1.5-.4-1.8-1-.5-1.5-.5-2.8v-10.7c0-4.1-.4-6.9-1.1-8.3-.8-1.4-2-2.1-3.7-2.1s-2,.4-2.8,1.3c-.8.8-1.2,2.6-1.2,5.3,0,7.2,0,12,.2,14.4l-.4-.4Z"/>
  <path class="st0" d="M332.4,97.2c-1.9.6-3.8.9-5.5.9-2.9,0-5.1-.7-6.4-2-1.4-1.4-2-3.3-2-5.7s1.2-6,3.5-7.6c2.3-1.7,6-2.5,11.1-2.5h3.3c-.2-3.1-.7-5.2-1.5-6.4s-2.1-1.7-3.8-1.7-1.9,0-3,.4c-.7,1.3-1.1,2-1.3,2.1-.1,0-.8.3-2.1.5-1.3.3-2.2.2-2.7-.3s-1.1-1.3-1.6-2.5-.8-2.2-.8-3,.2-.9.6-1.2c.4-.3,1.9-.6,4.6-.9,2.6-.3,5.5-.5,8.5-.5s6.3.6,8.4,1.8c2,1.2,3,3.6,3,7.1v8c0,4.5.2,7.2.6,8.2s1.1,1.4,2.1,1.2c.3.6.5,1.1.5,1.7,0,.9-.5,1.6-1.6,2.1s-2.5.7-4.4.7-1.4,0-1.9-.3c-.5-.2-1.2-1-2.2-2.3-1.5.8-3.2,1.5-5.2,2l-.2.2ZM336.3,85.1c-1.5-.3-2.9-.5-4.4-.5s-2.9.3-3.6.8c-.7.6-1.1,1.6-1.1,3.2s.4,2.4,1.1,3.1,1.8,1,3.1,1,2.1-.2,2.9-.7,1.4-1.1,1.7-2c.3-.9.4-2,.4-3.4v-1.7.2Z"/>
  <path class="st0" d="M377,70.7c1,2.1,1.5,4.2,1.5,6.2,0,3.6-1.2,6.5-3.6,8.6s-5.9,3.2-10.5,3.2-3.3.2-3.8.6-.8,1-.8,1.8.3,1.4.9,1.8,3.9.6,9.7.6,8.5.6,10.1,1.7,2.4,2.8,2.4,5c0,3.3-1.8,6-5.4,7.9s-9.1,2.9-16.7,2.9-5.9-.4-7-1.3c-1.2-.9-1.7-2.1-1.7-3.7s.3-2.3,1-3.5,1.5-2.3,2.7-3.5c-1-.3-1.9-.9-2.5-1.8s-1-1.8-1-3,.5-2.7,1.4-3.7c.9-1.1,2.2-2,3.8-2.7-1.3-.6-2.4-1.6-3.3-3s-1.3-3.3-1.3-5.5c0-3.6,1.2-6.5,3.5-8.9,2.4-2.4,5.9-3.5,10.6-3.5s4.7.4,6.9,1.2c2.9-1.4,4.6-2,5.2-2,2.9,0,4.5,0,4.8.2s.4.4.4.8c0,.6-.3,1.5-.9,2.6-.6,1.2-1.1,1.7-1.7,1.7s-2-.5-4.5-1.5l-.5.9h.3ZM359.9,101.1c-.3.7-.4,1.4-.4,2.1,0,1.2.4,2,1.1,2.5s2.2.7,4.4.7,5.5-.4,7-1.1,2.3-1.8,2.3-3.2-.6-2-1.7-2.4-5-.7-11.7-.7c-.5.5-.8,1.2-1.1,1.9v.2ZM362.5,72.4c-.7.9-1.1,2.7-1.1,5.4s.4,4.2,1.1,5.1,1.8,1.4,3.3,1.4,2.6-.4,3.3-1.3c.7-.9,1.1-2.7,1.1-5.4s-.4-4-1.1-5-1.8-1.6-3.3-1.6-2.5.5-3.2,1.4h0Z"/>
  <path class="st0" d="M405.8,78.2c.4.9.5,2.1.5,3.5s-.2,1.7-.5,2.1c-.4.4-1,.6-1.8.6h-15.5c-.4-1.1-.5-2.3-.5-3.5s.2-1.8.5-2.2c.4-.4.9-.5,1.5-.5h15.8Z"/>
  <path class="st0" d="M411.6,67.6c.5-.2,3.9-.4,10-.6.1.8.1,2,0,3.5,2.5-1.5,4.9-2.5,6.9-3,2.1-.5,3.9-.8,5.5-.8s1.2,0,1.5.3c.2.2.4.6.4,1.2,0,1.1-.2,2.3-.5,3.5s-.7,2-1.2,2.3-1.3.6-2.3.8c-1.1.2-1.7.2-1.9,0-.2,0-.7-.8-1.7-2-1.5,0-2.6.5-3.4,1.6s-1.2,3.9-1.2,8.4,0,7.6.2,10.6h4.8c.4.7.5,1.4.5,2.2s-.1,1.2-.4,1.5-.9.4-1.7.4h-15.5c-.4-.8-.5-1.6-.5-2.4s.1-1.1.4-1.3c.3-.3.7-.4,1.4-.4h2.2c.1-3,.2-6.4.2-10.3,0-5.7-.3-9-.8-10s-1.5-1.5-2.8-1.5c-.4-.8-.5-1.6-.5-2.4s.3-1.2.8-1.4l-.4-.3Z"/>
  <path class="st0" d="M463.7,69.5c1.9,1.9,2.8,4.9,2.8,9.1s-.4,3.5-1.2,4.4c-.8.9-2.6,1.3-5.3,1.3h-11.3c0,2.6.7,4.7,1.8,6.2,1.1,1.5,3.1,2.3,6,2.3s5.7-.8,8.6-2.4c1.1,1,1.6,2.1,1.6,3.3s-1.2,2.7-3.6,3.4-5.2,1-8.4,1c-5.5,0-9.5-1.1-12-3.3s-3.7-5.9-3.7-11,1.4-9.5,4.2-12.5c2.8-3,6.6-4.5,11.3-4.5s7.3,1,9.2,2.9v-.2ZM449.9,73.7c-.8,1.2-1.2,3.3-1.2,6.3h1.6c2.2,0,4,0,5.1-.2,1.2,0,1.9-.4,2.1-.7.2-.3.3-.8.3-1.6,0-1.8-.4-3.2-1.2-4.2s-1.9-1.5-3.3-1.5-2.6.6-3.4,1.8h0Z"/>
  <path class="st0" d="M485.2,97.2c-1.9.6-3.8.9-5.5.9-2.9,0-5.1-.7-6.4-2-1.4-1.4-2-3.3-2-5.7s1.2-6,3.5-7.6c2.3-1.7,6-2.5,11.1-2.5h3.3c-.2-3.1-.7-5.2-1.5-6.4-.8-1.1-2.1-1.7-3.8-1.7s-1.9,0-3,.4c-.7,1.3-1.1,2-1.3,2.1-.1,0-.8.3-2.1.5-1.3.3-2.2.2-2.7-.3s-1.1-1.3-1.6-2.5-.8-2.2-.8-3,.2-.9.6-1.2c.4-.3,1.9-.6,4.6-.9,2.6-.3,5.5-.5,8.5-.5s6.3.6,8.4,1.8c2,1.2,3,3.6,3,7.1v8c0,4.5.2,7.2.6,8.2s1.1,1.4,2.1,1.2c.3.6.5,1.1.5,1.7,0,.9-.5,1.6-1.6,2.1s-2.5.7-4.4.7-1.4,0-1.9-.3c-.5-.2-1.2-1-2.2-2.3-1.5.8-3.2,1.5-5.2,2l-.2.2ZM489.1,85.1c-1.5-.3-2.9-.5-4.4-.5s-2.9.3-3.6.8-1.1,1.6-1.1,3.2.4,2.4,1.1,3.1,1.8,1,3.1,1,2.1-.2,2.9-.7,1.4-1.1,1.7-2c.3-.9.4-2,.4-3.4v-1.7.2Z"/>
  <path class="st0" d="M520.2,97.5c-1.6.4-3.2.6-4.8.6-3.4,0-6.1-1-7.9-3.1-1.9-2.1-2.8-5.6-2.8-10.7s1.4-10.5,4.2-13.4c2.8-2.9,6.7-4.4,11.5-4.4s1.6,0,2.1,0,1.1,0,1.7.2c0-.8,0-1.8,0-3s-.2-2.2-.5-3.1c-.2-.9-.6-1.4-1.2-1.7-.6-.3-1.3-.4-2.2-.4-.4-.8-.5-1.7-.5-2.5s.3-1.4,1-1.6c.6-.2,2.7-.3,6.1-.3s3.6,0,4.4.3c.8.2,1.2.5,1.3,1s.2,1.1.2,2v21.5c0,7.1.2,11.3.6,12.6.4,1.3,1,1.9,1.9,1.7.4.6.6,1.2.6,1.8s-.9,1.4-2.6,2.1c-1.7.6-3.1.9-4.2.9s-1.1-.2-1.5-.5-1-1.1-1.7-2.5c-2.1,1.1-4,1.9-5.6,2.3v.2ZM515.7,73.8c-.9,1.3-1.3,4.1-1.3,8.5s.4,6.2,1.2,8c.8,1.7,2.1,2.6,3.9,2.6s2.1-.2,2.9-.7,1.3-1.1,1.6-1.8c.3-.7.4-2.4.4-5v-12.2c-.7-.4-1.4-.7-2.2-.9-.8-.3-1.6-.4-2.5-.4-1.7,0-3,.6-3.9,1.9h-.1Z"/>
  <g>
    <path class="st2" d="M411.3,108.5c-.1-.3-.2-.5-.2-.8s0-.3.1-.4c0,0,.2-.1.4-.1h4.9c2.6,0,4.3.3,5.3,1s1.4,1.7,1.4,3.1-.5,2.6-1.6,3.5-2.9,1.3-5.3,1.3h-.5v3.6h1.7c.1.2.2.5.2.7s0,.4-.1.5-.2.1-.4.1h-5.8c-.1-.3-.2-.6-.2-.8s0-.3.1-.4.2-.1.4-.1h1v-11h-1.4.1ZM416.7,114.3c1.1,0,1.8-.2,2.3-.5.5-.4.7-1.1.7-1.9s-.2-1.6-.7-2c-.4-.5-1.2-.7-2.1-.7h-1.1v5.1h.8Z"/>
    <path class="st2" d="M429.4,119.2c2.2,0,4-.3,5.4-.8.3.4.4,1,.4,1.5s-.1.6-.4.8c-.3.2-.8.2-1.7.2h-8.4c-.1-.3-.2-.5-.2-.8s0-.3.1-.4c0,0,.2-.1.4-.1h.7v-11h-1.2c-.1-.3-.2-.5-.2-.8s0-.3.1-.4c0,0,.2-.1.4-.1h5.3c.1.2.2.5.2.7s0,.4-.1.5c0,0-.2.1-.4.1h-1v10.7h.4Z"/>
    <path class="st2" d="M444.3,107c.1,0,.8,1.8,2,5.3s2,5.8,2.5,7.2h1c.1.2.2.5.2.7s0,.4-.1.5-.2.1-.4.1h-5.2c-.1-.3-.2-.6-.2-.8s0-.3.1-.4.2-.1.4-.1h.4c0-.5-.3-1.5-.7-2.9h-4.3c-.4,1.4-.6,2.4-.7,2.9h1c.1.2.2.5.2.7s0,.4-.1.5-.2.1-.4.1h-4.4c-.1-.3-.2-.6-.2-.8s0-.3.1-.4c0,0,.2-.1.4-.1h.5c.5-1.3,1.2-3.4,2.2-6.4s1.6-4.7,1.9-5.3,1-1,1.8-1,1.8,0,1.9.1h.2ZM443.9,115c-1.1-3.4-1.6-5.1-1.7-5.1s-.6,1.7-1.6,5.1h3.4-.1Z"/>
    <path class="st2" d="M455.1,119.5v-10.7c-2.3.1-3.7.2-3.9.2s-.5,0-.7-.2-.2-.3-.2-.7.1-1,.3-1.5c1.4.3,3.2.5,5.3.5h6.8c.3,0,.5,0,.7.1s.2.3.2.6c0,.6-.2,1.2-.5,1.8-1.3-.5-2.8-.8-4.4-.8h-.2v10.8h1.6c.1.2.2.5.2.7s0,.4-.1.5-.2.1-.4.1h-5.9c-.1-.3-.2-.6-.2-.8s0-.3.1-.4.2-.1.4-.1h1.2-.1Z"/>
    <path class="st2" d="M474.3,107.1c.4,0,.7,0,1,.2.2.1.3.4.3.8s-.2,1.1-.5,1.6c-1.4-.5-3.3-.8-5.4-.8h-.5v4h5.1c.1.3.2.7.2,1.2s0,.4-.1.4c0,0-.2.1-.4.1h-4.7v4.7h.8c2.2,0,4.1-.3,5.4-.8.3.4.4,1,.4,1.5s-.1.6-.4.8c-.3.2-.8.2-1.7.2h-9c-.1-.3-.2-.5-.2-.8s0-.3.1-.4c0,0,.2-.1.4-.1h.7v-11h-1.2c-.1-.3-.2-.5-.2-.8s0-.3.1-.4c0,0,.2-.1.4-.1h9.3Z"/>
    <path class="st2" d="M487.1,107.1c.4,0,.7,0,1,.2.2.1.3.4.3.8s-.2,1.1-.5,1.6c-1.4-.5-3.3-.8-5.4-.8h-.5v4.3h5c.1.3.2.7.2,1.2s0,.4-.1.4c0,0-.2.1-.4.1h-4.6v4.7h1.8c.1.2.2.5.2.7s0,.4-.1.5-.2.1-.4.1h-5.8c-.1-.3-.2-.6-.2-.8s0-.3.1-.4.2-.1.4-.1h.7v-11h-1.2c-.1-.3-.2-.5-.2-.8s0-.3.1-.4c0,0,.2-.1.4-.1h9.2,0Z"/>
    <path class="st2" d="M491,108.8c1.3-1.3,2.9-1.9,5-1.9s3.5.4,4.6,1.4,1.6,2.6,1.6,5.1-.6,4.6-1.8,5.8c-1.3,1.3-3,1.9-5.1,1.9s-3.4-.4-4.4-1.4-1.6-2.6-1.6-5.1.6-4.6,1.8-5.8ZM493.5,118c.5.7,1.3,1.2,2.3,1.2s1.8-.3,2.2-1.1.6-2,.6-3.7-.3-3.7-.8-4.4-1.3-1.1-2.3-1.1-1.8.3-2.2,1.1-.6,2-.6,3.7.3,3.6.8,4.3Z"/>
    <path class="st2" d="M510.4,119.5c.1.2.2.5.2.7s0,.4-.1.5-.2.1-.4.1h-5.7c-.1-.3-.2-.6-.2-.8s0-.3.1-.4.2-.1.4-.1h1v-11h-1.4c-.1-.3-.2-.5-.2-.8s0-.3.1-.4c0,0,.2-.1.4-.1h5.3c2.1,0,3.6.3,4.6.8,1,.6,1.4,1.5,1.4,2.9s-1.1,3.1-3.3,3.7c.5.2,1.1.6,1.4,1.1.4.5.7,1.2,1.2,2,.4.8.7,1.4,1.1,1.6s.6.3,1.2.3c.2.6.2,1.1,0,1.3s-.7.3-1.7.3-1.8-.1-2.2-.3c-.4-.2-.7-1-1.1-2.1s-.6-2-1.1-2.5c-.4-.5-.8-.8-1.6-.8h-1v4.1h1.7ZM508.9,113.7h.8c.8,0,1.6-.2,2-.5s.7-.8.7-1.6-.2-1.6-.6-2c-.4-.4-1.1-.6-1.7-.6h-1.1v4.6l-.2.2Z"/>
    <path class="st2" d="M524.9,107.1c.3,1.3.6,2.6,1,3.9s.7,2.6,1.1,4,.5,2.1.5,2.1c0,0,.4-1.3,1.1-3.9s1.2-4.7,1.4-6h5.3c.1.2.2.5.2.7s0,.4-.1.5-.2.1-.4.1h-.7c0,1.2,0,3.1.2,5.7.1,2.6.2,4.4.3,5.3h1c.1.2.2.5.2.7s0,.4-.1.5c0,0-.2.1-.4.1h-4.7c-.1-.3-.2-.6-.2-.8s0-.3.1-.4c0,0,.2-.1.4-.1h.4c0-1.3,0-4.4-.2-9.5-.5,2.2-1.1,4.1-1.5,5.8-.5,1.6-.8,2.6-1.2,3.2-.2.4-.7.6-1.5.6-1.1,0-1.6,0-1.7-.1s-.4-1-1-2.5-1.2-3.9-2-7.1v9.6h.7c.1.2.2.5.2.7s0,.4-.1.5-.2.1-.4.1h-4.2c-.1-.3-.2-.6-.2-.8s0-.3.1-.4.2-.1.4-.1h.6c0-.8.2-2.6.3-5.3s.2-4.6.2-5.7h-1.2c-.1-.3-.2-.5-.2-.8s0-.3.1-.4c0,0,.2-.1.4-.1h5.7Z"/>
  </g>
  <path class="st2" d="M286.4,39.2c2.6-3,5.7-4.5,9.2-4.5s1.6.2,2.1.6c.5.4.7,1.1.7,2s-.3,2.2-.8,3.3c-1.8-.4-3.3-.3-4.8.2-1.4.5-2.2,2.1-2.5,4.8,1.5.4,2.5,1,3.2,1.9.6.9,1,1.9,1,3s-.6,2.9-1.7,3.9-2.6,1.5-4.5,1.5-3.4-.5-4.4-1.6-1.5-2.7-1.5-4.8c0-3.7,1.3-7.1,4-10.1v-.2Z"/>
  <path class="st2" d="M584.7,101l4-4-9.3-9.4,9.3-9.3-4-4-13.3,13.3,13.3,13.3h0ZM602.3,101l13.3-13.3-13.3-13.3-4,4,9.3,9.3-9.4,9.4,4,4h.1ZM565.8,120.8c-1.6,0-2.8-.6-4-1.6s-1.6-2.4-1.6-4v-55.4c0-1.6.6-2.8,1.6-4,1.1-1.1,2.4-1.6,4-1.6h18.9c.3-2.1,1.2-4,2.9-5.3s3.6-2,5.8-2,4.2.7,5.8,2c1.7,1.4,2.6,3.2,2.9,5.3h18.9c1.6,0,2.8.6,4,1.6,1.1,1.1,1.6,2.4,1.6,4v55.4c0,1.6-.6,2.8-1.6,4s-2.4,1.6-4,1.6h-55.4.2ZM565.8,115.3h55.4v-55.4h-55.4v55.4ZM593.5,58.4c.9,0,1.6-.3,2.3-1s1-1.4,1-2.3-.3-1.6-1-2.3c-.7-.7-1.4-1-2.3-1s-1.6.3-2.3,1c-.7.7-1,1.4-1,2.3s.3,1.6,1,2.3c.7.7,1.4,1,2.3,1ZM565.8,115.3v-55.4,55.4Z"/>
</svg>