<?xml version="1.0" encoding="UTF-8"?>
<svg id="Calque_1" xmlns="http://www.w3.org/2000/svg" version="1.1" viewBox="0 0 888 160">
  <!-- Generator: Adobe Illustrator 29.0.1, SVG Export Plug-In . SVG Version: 2.1.0 Build 192)  -->
  <defs>
    <style>
      .st0 {
        fill: #1a1818;
        font-size: 62.1px;
      }

      .st0, .st1 {
        font-family: Kefa-Bold, Kefa;
        font-weight: 700;
      }

      .st1 {
        font-size: 19.6px;
      }

      .st1, .st2 {
        fill: #515151;
      }

      .st3 {
        fill: #e5e5e5;
      }
    </style>
  </defs>
  <rect class="st3" width="888" height="160"/>
  <g>
    <g>
      <g>
        <text class="st0" transform="translate(261.3 97.5)"><tspan x="0" y="0">mag-read</tspan></text>
        <text class="st1" transform="translate(404.2 120.9)"><tspan x="0" y="0">PLATEFORME</tspan></text>
      </g>
      <path class="st2" d="M286.4,39.2c2.6-3,5.7-4.5,9.2-4.5s1.6.2,2.1.6c.5.4.7,1.1.7,2s-.3,2.2-.8,3.3c-1.8-.4-3.3-.3-4.8.2-1.4.5-2.2,2.1-2.5,4.8,1.5.4,2.5,1,3.2,1.9.6.9,1,1.9,1,3s-.6,2.9-1.7,3.9c-1.1,1-2.6,1.5-4.5,1.5s-3.4-.5-4.4-1.6c-1-1.1-1.5-2.7-1.5-4.8,0-3.7,1.3-7.1,4-10.1Z"/>
    </g>
    <path class="st2" d="M589.5,103.3l3.5-3.5-8.2-8.3,8.2-8.2-3.5-3.5-11.8,11.8,11.8,11.8ZM605.1,103.3l11.8-11.8-11.8-11.8-3.5,3.5,8.2,8.2-8.3,8.3,3.5,3.5ZM572.8,120.8c-1.4,0-2.5-.5-3.5-1.4s-1.4-2.1-1.4-3.5v-49c0-1.4.5-2.5,1.4-3.5,1-1,2.1-1.4,3.5-1.4h16.7c.3-1.9,1.1-3.5,2.6-4.7,1.5-1.2,3.2-1.8,5.1-1.8s3.7.6,5.1,1.8c1.5,1.2,2.3,2.8,2.6,4.7h16.7c1.4,0,2.5.5,3.5,1.4,1,1,1.4,2.1,1.4,3.5v49c0,1.4-.5,2.5-1.4,3.5s-2.1,1.4-3.5,1.4h-49ZM572.8,115.9h49v-49h-49v49ZM597.3,65.6c.8,0,1.4-.3,2-.9.6-.6.9-1.2.9-2s-.3-1.4-.9-2c-.6-.6-1.2-.9-2-.9s-1.4.3-2,.9c-.6.6-.9,1.2-.9,2s.3,1.4.9,2c.6.6,1.2.9,2,.9ZM572.8,115.9v-49,49Z"/>
  </g>
</svg>