<?xml version="1.0" encoding="UTF-8"?>
<svg id="Calque_1" xmlns="http://www.w3.org/2000/svg" version="1.1" viewBox="0 0 888 160">
  <!-- Generator: Adobe Illustrator 29.0.1, SVG Export Plug-In . SVG Version: 2.1.0 Build 192)  -->
  <defs>
    <style>
      .st0 {
        fill: #1a1818;
      }

      .st1 {
        fill: #e5e5e5;
      }

      .st2 {
        fill: #515151;
      }
    </style>
  </defs>
  <rect class="st1" width="888" height="160"/>
  <g>
    <g>
      <g>
        <g>
          <path class="st0" d="M293.7,93.4h3.3c.4.7.5,1.4.5,2.2s-.1,1.2-.4,1.5-.9.4-1.7.4h-12.6c-.3-.8-.5-1.6-.5-2.4s.1-1.1.4-1.3.7-.4,1.4-.4h.8c.1-3.5.2-7,.2-10.5s-.4-6.9-1.1-8.3c-.8-1.4-2-2.1-3.7-2.1s-2,.4-2.8,1.3c-.8.8-1.2,2.6-1.2,5.3v6.1c0,2.5,0,5.3.2,8.3h2.2c.3.7.5,1.4.5,2.2s-.1,1.2-.4,1.5c-.3.3-.9.4-1.7.4h-12.9c-.4-.8-.5-1.6-.5-2.4s.1-1.1.4-1.3c.3-.3.7-.4,1.4-.4h2.2c.1-3.3.2-6.8.2-10.3,0-5.7-.3-9-.8-10-.5-1-1.5-1.5-2.8-1.5-.4-.8-.5-1.6-.5-2.4s.3-1.2.8-1.4c.5-.2,3.9-.4,10-.6.1.8.1,2,0,3.5,2.2-1.4,4.3-2.4,6.2-2.9,1.9-.6,3.6-.9,5-.9s3.5.3,4.6.9c1.1.6,1.8,1.4,2.3,2.4,1.8-1.1,3.7-2,5.5-2.5,1.9-.6,3.5-.8,4.9-.8,2.6,0,4.7.6,6,1.9,1.4,1.3,2.1,3.8,2.1,7.6,0,9.9.2,15.3.5,16.1.4.8,1.2,1.2,2.4,1.1.3.7.5,1.5.5,2.3s-.2,1.2-.7,1.5c-.5.3-1.4.4-2.7.4-3.3,0-5.3,0-6.2-.2s-1.5-.4-1.8-1c-.3-.6-.5-1.5-.5-2.8v-10.7c0-4.1-.4-6.9-1.1-8.3-.8-1.4-2-2.1-3.7-2.1s-2,.4-2.8,1.3c-.8.8-1.2,2.6-1.2,5.3,0,7.2,0,12,.2,14.4Z"/>
          <path class="st0" d="M332.4,97.2c-1.9.6-3.8.9-5.5.9-2.9,0-5.1-.7-6.4-2-1.4-1.4-2-3.3-2-5.7s1.2-6,3.5-7.6c2.3-1.7,6-2.5,11.1-2.5h3.3c-.2-3.1-.7-5.2-1.5-6.4s-2.1-1.7-3.8-1.7-1.9.1-3,.4c-.7,1.3-1.1,2-1.3,2.1-.1,0-.8.3-2.1.5-1.3.3-2.2.2-2.7-.3-.5-.5-1.1-1.3-1.6-2.5-.5-1.2-.8-2.2-.8-3s.2-.9.6-1.2c.4-.3,1.9-.6,4.6-.9,2.6-.3,5.5-.5,8.5-.5s6.3.6,8.4,1.8c2,1.2,3,3.6,3,7.1v8c0,4.5.2,7.2.6,8.2.4,1,1.1,1.4,2.1,1.2.3.6.5,1.1.5,1.7,0,.9-.5,1.6-1.6,2.1-1.1.5-2.5.7-4.4.7s-1.4-.1-1.9-.3c-.5-.2-1.2-1-2.2-2.3-1.5.8-3.2,1.5-5.2,2ZM336.3,85.1c-1.5-.3-2.9-.5-4.4-.5s-2.9.3-3.6.8c-.7.6-1.1,1.6-1.1,3.2s.4,2.4,1.1,3.1c.7.7,1.8,1,3.1,1s2.1-.2,2.9-.7c.8-.5,1.4-1.1,1.7-2,.3-.9.4-2,.4-3.4v-1.7Z"/>
          <path class="st0" d="M377,70.7c1,2.1,1.5,4.2,1.5,6.2,0,3.6-1.2,6.5-3.6,8.6s-5.9,3.2-10.5,3.2-3.3.2-3.8.6c-.5.4-.8,1-.8,1.8s.3,1.4.9,1.8c.6.4,3.9.6,9.7.6s8.5.6,10.1,1.7c1.6,1.1,2.4,2.8,2.4,5,0,3.3-1.8,6-5.4,7.9-3.6,1.9-9.1,2.9-16.7,2.9s-5.9-.4-7-1.3c-1.2-.9-1.7-2.1-1.7-3.7s.3-2.3,1-3.5,1.5-2.3,2.7-3.5c-1-.3-1.9-.9-2.5-1.8s-1-1.8-1-3,.5-2.7,1.4-3.7c.9-1.1,2.2-2,3.8-2.7-1.3-.6-2.4-1.6-3.3-3-.9-1.4-1.3-3.3-1.3-5.5,0-3.6,1.2-6.5,3.5-8.9,2.4-2.4,5.9-3.5,10.6-3.5s4.7.4,6.9,1.2c2.9-1.4,4.6-2,5.2-2,2.9,0,4.5,0,4.8.2.3.2.4.4.4.8,0,.6-.3,1.5-.9,2.6-.6,1.2-1.1,1.7-1.7,1.7s-2-.5-4.5-1.5l-.5.9ZM359.9,101.1c-.3.7-.4,1.4-.4,2.1,0,1.2.4,2,1.1,2.5.7.5,2.2.7,4.4.7s5.5-.4,7-1.1,2.3-1.8,2.3-3.2-.6-2-1.7-2.4c-1.1-.4-5-.7-11.7-.7-.5.5-.8,1.2-1.1,1.9ZM362.5,72.4c-.7.9-1.1,2.7-1.1,5.4s.4,4.2,1.1,5.1c.7.9,1.8,1.4,3.3,1.4s2.6-.4,3.3-1.3c.7-.9,1.1-2.7,1.1-5.4s-.4-4-1.1-5c-.7-1-1.8-1.6-3.3-1.6s-2.5.5-3.2,1.4Z"/>
          <path class="st0" d="M405.8,78.2c.4.9.5,2.1.5,3.5s-.2,1.7-.5,2.1c-.4.4-1,.6-1.8.6h-15.5c-.4-1.1-.5-2.3-.5-3.5s.2-1.8.5-2.2c.4-.4.9-.5,1.5-.5h15.8Z"/>
          <path class="st0" d="M411.6,67.6c.5-.2,3.9-.4,10-.6.1.8.1,2,0,3.5,2.5-1.5,4.9-2.5,6.9-3,2.1-.5,3.9-.8,5.5-.8s1.2,0,1.5.3c.2.2.4.6.4,1.2,0,1.1-.2,2.3-.5,3.5-.3,1.2-.7,2-1.2,2.3-.5.3-1.3.6-2.3.8-1.1.2-1.7.2-1.9.1-.2,0-.7-.8-1.7-2-1.5,0-2.6.5-3.4,1.6-.8,1.1-1.2,3.9-1.2,8.4s0,7.6.2,10.6h4.8c.4.7.5,1.4.5,2.2s-.1,1.2-.4,1.5-.9.4-1.7.4h-15.5c-.4-.8-.5-1.6-.5-2.4s.1-1.1.4-1.3c.3-.3.7-.4,1.4-.4h2.2c.1-3,.2-6.4.2-10.3,0-5.7-.3-9-.8-10-.5-1-1.5-1.5-2.8-1.5-.4-.8-.5-1.6-.5-2.4s.3-1.2.8-1.4Z"/>
          <path class="st0" d="M463.7,69.5c1.9,1.9,2.8,4.9,2.8,9.1s-.4,3.5-1.2,4.4c-.8.9-2.6,1.3-5.3,1.3h-11.3c0,2.6.7,4.7,1.8,6.2,1.1,1.5,3.1,2.3,6,2.3s5.7-.8,8.6-2.4c1.1,1,1.6,2.1,1.6,3.3s-1.2,2.7-3.6,3.4-5.2,1-8.4,1c-5.5,0-9.5-1.1-12-3.3s-3.7-5.9-3.7-11,1.4-9.5,4.2-12.5c2.8-3,6.6-4.5,11.3-4.5s7.3,1,9.2,2.9ZM449.9,73.7c-.8,1.2-1.2,3.3-1.2,6.3h1.6c2.2,0,4,0,5.1-.2,1.2-.1,1.9-.4,2.1-.7.2-.3.3-.8.3-1.6,0-1.8-.4-3.2-1.2-4.2s-1.9-1.5-3.3-1.5-2.6.6-3.4,1.8Z"/>
          <path class="st0" d="M485.2,97.2c-1.9.6-3.8.9-5.5.9-2.9,0-5.1-.7-6.4-2-1.4-1.4-2-3.3-2-5.7s1.2-6,3.5-7.6c2.3-1.7,6-2.5,11.1-2.5h3.3c-.2-3.1-.7-5.2-1.5-6.4-.8-1.1-2.1-1.7-3.8-1.7s-1.9.1-3,.4c-.7,1.3-1.1,2-1.3,2.1-.1,0-.8.3-2.1.5-1.3.3-2.2.2-2.7-.3-.5-.5-1.1-1.3-1.6-2.5-.5-1.2-.8-2.2-.8-3s.2-.9.6-1.2c.4-.3,1.9-.6,4.6-.9,2.6-.3,5.5-.5,8.5-.5s6.3.6,8.4,1.8c2,1.2,3,3.6,3,7.1v8c0,4.5.2,7.2.6,8.2.4,1,1.1,1.4,2.1,1.2.3.6.5,1.1.5,1.7,0,.9-.5,1.6-1.6,2.1-1.1.5-2.5.7-4.4.7s-1.4-.1-1.9-.3c-.5-.2-1.2-1-2.2-2.3-1.5.8-3.2,1.5-5.2,2ZM489.1,85.1c-1.5-.3-2.9-.5-4.4-.5s-2.9.3-3.6.8-1.1,1.6-1.1,3.2.4,2.4,1.1,3.1c.7.7,1.8,1,3.1,1s2.1-.2,2.9-.7c.8-.5,1.4-1.1,1.7-2,.3-.9.4-2,.4-3.4v-1.7Z"/>
          <path class="st0" d="M520.2,97.5c-1.6.4-3.2.6-4.8.6-3.4,0-6.1-1-7.9-3.1-1.9-2.1-2.8-5.6-2.8-10.7s1.4-10.5,4.2-13.4c2.8-2.9,6.7-4.4,11.5-4.4s1.6,0,2.1,0c.5,0,1.1,0,1.7.2,0-.8,0-1.8-.1-3s-.2-2.2-.5-3.1c-.2-.9-.6-1.4-1.2-1.7-.6-.3-1.3-.4-2.2-.4-.4-.8-.5-1.7-.5-2.5s.3-1.4,1-1.6c.6-.2,2.7-.3,6.1-.3s3.6,0,4.4.3c.8.2,1.2.5,1.3,1,.1.5.2,1.1.2,2v21.5c0,7.1.2,11.3.6,12.6.4,1.3,1,1.9,1.9,1.7.4.6.6,1.2.6,1.8s-.9,1.4-2.6,2.1c-1.7.6-3.1.9-4.2.9s-1.1-.2-1.5-.5c-.4-.3-1-1.1-1.7-2.5-2.1,1.1-4,1.9-5.6,2.3ZM515.7,73.8c-.9,1.3-1.3,4.1-1.3,8.5s.4,6.2,1.2,8c.8,1.7,2.1,2.6,3.9,2.6s2.1-.2,2.9-.7,1.3-1.1,1.6-1.8c.3-.7.4-2.4.4-5v-12.2c-.7-.4-1.4-.7-2.2-.9-.8-.3-1.6-.4-2.5-.4-1.7,0-3,.6-3.9,1.9Z"/>
        </g>
        <g>
          <path class="st2" d="M417.8,109.2c-.1-.3-.2-.5-.2-.8s0-.3.1-.4c0,0,.2-.1.4-.1h4.6c2.5,0,4.1.3,5,.9.9.6,1.3,1.6,1.3,2.9s-.5,2.5-1.5,3.3-2.7,1.2-5,1.2h-.5c0,1.7,0,2.8,0,3.4h1.6c.1.2.2.5.2.7s0,.4-.1.5-.2.1-.4.1h-5.5c-.1-.3-.2-.6-.2-.8s0-.3.1-.4.2-.1.4-.1h.9c0-.8,0-3,0-6.4s0-3.2,0-4h-1.3ZM422.9,114.7c1,0,1.7-.2,2.2-.5.5-.4.7-1,.7-1.8s-.2-1.5-.7-1.9c-.4-.5-1.1-.7-2-.7s-.7,0-1,0c0,.4,0,1.5,0,3.4v1.4h.8Z"/>
          <path class="st2" d="M434.9,119.3c2.1,0,3.8-.3,5.1-.8.3.4.4.9.4,1.4s-.1.6-.4.8c-.3.2-.8.2-1.6.2h-7.9c-.1-.3-.2-.5-.2-.8s0-.3.1-.4c0,0,.2-.1.4-.1h.7c0-.8,0-3,0-6.4s0-3.2,0-4h-1.1c-.1-.3-.2-.5-.2-.8s0-.3.1-.4c0,0,.2-.1.4-.1h5c.1.2.2.5.2.7s0,.4-.1.5c0,0-.2.1-.4.1h-.9c0,.8,0,2.2,0,4,0,3.5,0,5.5,0,6.1h.2Z"/>
          <path class="st2" d="M449,107.8c.1,0,.8,1.7,1.9,5,1.1,3.3,1.9,5.5,2.4,6.8h.9c.1.2.2.5.2.7s0,.4-.1.5-.2.1-.4.1h-4.9c-.1-.3-.2-.6-.2-.8s0-.3.1-.4.2-.1.4-.1h.4c0-.5-.3-1.4-.7-2.7h-4.1c-.4,1.3-.6,2.3-.7,2.7h.9c.1.2.2.5.2.7s0,.4-.1.5-.2.1-.4.1h-4.2c-.1-.3-.2-.6-.2-.8s0-.3.1-.4c0,0,.2-.1.4-.1h.5c.5-1.2,1.1-3.2,2.1-6s1.5-4.4,1.8-5,.9-.9,1.7-.9,1.7,0,1.8.1ZM448.6,115.3c-1-3.2-1.5-4.8-1.6-4.8s-.6,1.6-1.5,4.8h3.2Z"/>
          <path class="st2" d="M459.2,119.6c0-.8,0-3,0-6.4s0-3.1,0-3.7c-2.2.1-3.5.2-3.7.2s-.5,0-.7-.2c-.1-.1-.2-.3-.2-.7s.1-.9.3-1.4c1.3.3,3,.5,5,.5h6.4c.3,0,.5,0,.7.1s.2.3.2.6c0,.6-.2,1.1-.5,1.7-1.2-.5-2.6-.8-4.2-.8h-.2c0,.6,0,1.9,0,3.8,0,3.5,0,5.6,0,6.4h1.5c.1.2.2.5.2.7s0,.4-.1.5-.2.1-.4.1h-5.6c-.1-.3-.2-.6-.2-.8s0-.3.1-.4.2-.1.4-.1h1.1Z"/>
          <path class="st2" d="M477.3,107.9c.4,0,.7,0,.9.2.2.1.3.4.3.8s-.2,1-.5,1.5c-1.3-.5-3.1-.8-5.1-.8h-.5c0,.6,0,1.9,0,3.8h4.8c.1.3.2.7.2,1.1s0,.4-.1.4c0,0-.2.1-.4.1h-4.4c0,2.5,0,3.9,0,4.4h.8c2.1,0,3.9-.3,5.1-.8.3.4.4.9.4,1.4s-.1.6-.4.8c-.3.2-.8.2-1.6.2h-8.5c-.1-.3-.2-.5-.2-.8s0-.3.1-.4c0,0,.2-.1.4-.1h.7c0-.8,0-3,0-6.4s0-3.2,0-4h-1.1c-.1-.3-.2-.5-.2-.8s0-.3.1-.4c0,0,.2-.1.4-.1h8.7Z"/>
          <path class="st2" d="M489.4,107.9c.4,0,.7,0,.9.2.2.1.3.4.3.8s-.2,1-.5,1.5c-1.3-.5-3.1-.8-5.1-.8h-.5c0,.6,0,2,0,4.1h4.7c.1.3.2.7.2,1.1s0,.4-.1.4c0,0-.2.1-.4.1h-4.3c0,2.3,0,3.8,0,4.4h1.7c.1.2.2.5.2.7s0,.4-.1.5-.2.1-.4.1h-5.5c-.1-.3-.2-.6-.2-.8s0-.3.1-.4.2-.1.4-.1h.7c0-.8,0-3,0-6.4s0-3.2,0-4h-1.1c-.1-.3-.2-.5-.2-.8s0-.3.1-.4c0,0,.2-.1.4-.1h8.7Z"/>
          <path class="st2" d="M493.1,109.5c1.2-1.2,2.7-1.8,4.7-1.8s3.3.4,4.3,1.3c1,.9,1.5,2.5,1.5,4.8s-.6,4.3-1.7,5.5c-1.2,1.2-2.8,1.8-4.8,1.8s-3.2-.4-4.2-1.3-1.5-2.5-1.5-4.8.6-4.3,1.7-5.5ZM495.4,118.2c.5.7,1.2,1.1,2.2,1.1s1.7-.3,2.1-1c.4-.7.6-1.9.6-3.5s-.3-3.5-.8-4.2c-.5-.7-1.2-1-2.2-1s-1.7.3-2.1,1-.6,1.9-.6,3.5.3,3.4.8,4.1Z"/>
          <path class="st2" d="M511.4,119.6c.1.2.2.5.2.7s0,.4-.1.5-.2.1-.4.1h-5.4c-.1-.3-.2-.6-.2-.8s0-.3.1-.4.2-.1.4-.1h.9c0-.8,0-3,0-6.4s0-3.2,0-4h-1.3c-.1-.3-.2-.5-.2-.8s0-.3.1-.4c0,0,.2-.1.4-.1h5c2,0,3.4.3,4.3.8.9.6,1.3,1.4,1.3,2.7s-1,2.9-3.1,3.5c.5.2,1,.6,1.3,1,.4.5.7,1.1,1.1,1.9.4.8.7,1.3,1,1.5.3.2.6.3,1.1.3.2.6.2,1,0,1.2-.2.2-.7.3-1.6.3s-1.7-.1-2.1-.3c-.4-.2-.7-.9-1-2-.3-1.1-.6-1.9-1-2.4-.4-.5-.8-.8-1.5-.8s-.6,0-.9,0c0,1.9,0,3.2,0,3.9h1.4ZM510,114.1h.8c.8,0,1.5-.2,1.9-.5.4-.3.7-.8.7-1.5s-.2-1.5-.6-1.9c-.4-.4-1-.6-1.6-.6s-.7,0-1,0c0,.4,0,1.5,0,3.4v.9Z"/>
          <path class="st2" d="M525.1,107.9c.3,1.2.6,2.5.9,3.7s.7,2.5,1,3.8c.3,1.3.5,2,.5,2s.4-1.2,1-3.7c.6-2.5,1.1-4.4,1.3-5.7h5c.1.2.2.5.2.7s0,.4-.1.5-.2.1-.4.1h-.7c0,1.1,0,2.9.2,5.4.1,2.5.2,4.2.3,5h.9c.1.2.2.5.2.7s0,.4-.1.5c0,0-.2.1-.4.1h-4.4c-.1-.3-.2-.6-.2-.8s0-.3.1-.4c0,0,.2-.1.4-.1h.4c0-1.2,0-4.2-.2-9-.5,2.1-1,3.9-1.4,5.5-.5,1.5-.8,2.5-1.1,3-.2.4-.7.6-1.4.6-1,0-1.5,0-1.6-.1s-.4-.9-.9-2.4c-.5-1.5-1.1-3.7-1.9-6.7,0,4.8,0,7.8,0,9.1h.7c.1.2.2.5.2.7s0,.4-.1.5-.2.1-.4.1h-4c-.1-.3-.2-.6-.2-.8s0-.3.1-.4.2-.1.4-.1h.6c0-.8.2-2.5.3-5,.1-2.5.2-4.3.2-5.4h-1.1c-.1-.3-.2-.5-.2-.8s0-.3.1-.4c0,0,.2-.1.4-.1h5.2Z"/>
        </g>
      </g>
      <path class="st2" d="M286.4,39.2c2.6-3,5.7-4.5,9.2-4.5s1.6.2,2.1.6c.5.4.7,1.1.7,2s-.3,2.2-.8,3.3c-1.8-.4-3.3-.3-4.8.2-1.4.5-2.2,2.1-2.5,4.8,1.5.4,2.5,1,3.2,1.9.6.9,1,1.9,1,3s-.6,2.9-1.7,3.9c-1.1,1-2.6,1.5-4.5,1.5s-3.4-.5-4.4-1.6c-1-1.1-1.5-2.7-1.5-4.8,0-3.7,1.3-7.1,4-10.1Z"/>
    </g>
    <path class="st2" d="M589.5,103.3l3.5-3.5-8.2-8.3,8.2-8.2-3.5-3.5-11.8,11.8,11.8,11.8ZM605.1,103.3l11.8-11.8-11.8-11.8-3.5,3.5,8.2,8.2-8.3,8.3,3.5,3.5ZM572.8,120.8c-1.4,0-2.5-.5-3.5-1.4s-1.4-2.1-1.4-3.5v-49c0-1.4.5-2.5,1.4-3.5,1-1,2.1-1.4,3.5-1.4h16.7c.3-1.9,1.1-3.5,2.6-4.7,1.5-1.2,3.2-1.8,5.1-1.8s3.7.6,5.1,1.8c1.5,1.2,2.3,2.8,2.6,4.7h16.7c1.4,0,2.5.5,3.5,1.4,1,1,1.4,2.1,1.4,3.5v49c0,1.4-.5,2.5-1.4,3.5s-2.1,1.4-3.5,1.4h-49ZM572.8,115.9h49v-49h-49v49ZM597.3,65.6c.8,0,1.4-.3,2-.9.6-.6.9-1.2.9-2s-.3-1.4-.9-2c-.6-.6-1.2-.9-2-.9s-1.4.3-2,.9c-.6.6-.9,1.2-.9,2s.3,1.4.9,2c.6.6,1.2.9,2,.9ZM572.8,115.9v-49,49Z"/>
  </g>
</svg>