<?xml version="1.0" encoding="UTF-8"?><svg id="Calque_1" xmlns="http://www.w3.org/2000/svg" viewBox="0 0 512 512"><path d="M284.07,414.81h19.24c2.12,3.89,3.18,8.25,3.18,13.06,0,4.13-.85,7.01-2.56,8.66-1.71,1.65-5.03,2.47-9.98,2.47h-73.28c-2.01-4.94-3-9.59-3-13.95,0-3.64,.82-6.27,2.47-7.86,1.65-1.58,4.3-2.39,7.95-2.39h4.41c.59-20.59,.88-40.96,.88-61.1,0-24.01-2.21-40.11-6.62-48.3-4.41-8.17-11.56-12.26-21.46-12.26-6,0-11.42,2.45-16.24,7.32-4.83,4.88-7.24,15.1-7.24,30.63v35.51c0,14.83,.29,30.9,.88,48.2h12.71c2,3.89,3,8.25,3,13.06,0,4.13-.85,7.01-2.56,8.66-1.71,1.65-5.04,2.47-9.98,2.47H111.03c-2.12-4.94-3.18-9.59-3.18-13.95,0-3.64,.82-6.27,2.47-7.86,1.65-1.58,4.3-2.39,7.94-2.39h12.9c.59-19.42,.88-39.5,.88-60.21,0-32.96-1.56-52.46-4.68-58.44-3.13-6.01-8.57-9.01-16.33-9.01-2.12-4.71-3.18-9.42-3.18-14.13,0-4.24,1.55-6.99,4.68-8.29,3.12-1.3,22.57-2.47,58.35-3.54,.6,4.94,.6,11.71,0,20.3,12.84-8,24.87-13.68,36.11-17.03,11.24-3.35,21.04-5.04,29.41-5.04,11.65,0,20.59,1.79,26.84,5.39,6.24,3.6,10.66,8.33,13.25,14.21,10.59-6.48,21.36-11.36,32.32-14.65,10.94-3.31,20.42-4.96,28.43-4.96,15.42,0,27.15,3.66,35.23,10.94,8.05,7.3,12.1,22.03,12.1,44.15,0,57.93,1.06,89.16,3.18,93.68,2.12,4.53,6.71,6.75,13.77,6.62,1.76,4.24,2.64,8.66,2.64,13.25,0,4.24-1.38,7.12-4.15,8.64-2.77,1.54-8.03,2.3-15.81,2.3-19.07,0-31.13-.29-36.2-.88-5.06-.58-8.54-2.49-10.42-5.74-1.88-3.23-2.83-8.68-2.83-16.33v-62.33c0-24.01-2.2-40.11-6.62-48.3-4.41-8.17-11.56-12.26-21.45-12.26-6.01,0-11.43,2.45-16.25,7.32-4.82,4.88-7.24,15.1-7.24,30.63,0,41.8,.3,69.7,.88,83.71Z"/><path d="M232.64,99.38c15.42-17.57,33.29-26.38,53.62-26.38,5.19,0,9.19,1.12,12.01,3.36,2.81,2.21,4.23,6.15,4.23,11.77,0,6.69-1.56,13.07-4.67,19.14-10.24-2.37-19.47-1.96-27.7,1.22-8.23,3.2-13.09,12.43-14.58,27.7,8.46,2.23,14.58,5.82,18.36,10.8,3.78,4.97,5.67,10.78,5.67,17.46,0,9.35-3.27,16.91-9.79,22.69-6.53,5.78-15.21,8.67-26.03,8.67s-19.62-3.14-25.47-9.45c-5.86-6.3-8.79-15.69-8.79-28.14,0-21.66,7.71-41.27,23.14-58.84Z"/></svg>