<?xml version="1.0" standalone="no"?>
<!DOCTYPE svg PUBLIC "-//W3C//DTD SVG 20010904//EN"
 "http://www.w3.org/TR/2001/REC-SVG-20010904/DTD/svg10.dtd">
<svg version="1.0" xmlns="http://www.w3.org/2000/svg"
 width="700.000000pt" height="700.000000pt" viewBox="0 0 700.000000 700.000000"
 preserveAspectRatio="xMidYMid meet">
<metadata>
Created by potrace 1.14, written by Peter Selinger 2001-2017
</metadata>
<g transform="translate(0.000000,700.000000) scale(0.100000,-0.100000)"
fill="#000000" stroke="none">
<path d="M3740 5986 c-253 -56 -470 -210 -653 -463 -95 -133 -175 -316 -202
-463 -13 -67 -21 -192 -19 -266 11 -309 184 -476 484 -469 233 5 406 122 456
307 27 102 12 242 -34 317 -49 80 -140 148 -235 176 -40 12 -42 14 -39 46 5
55 31 150 56 204 44 94 133 155 249 171 64 9 177 6 225 -5 l44 -9 19 44 c27
60 47 170 43 237 -4 78 -25 121 -75 154 -40 26 -50 28 -153 29 -61 1 -136 -4
-166 -10z"/>
<path d="M3228 3455 c-2 -1 -45 -5 -96 -8 -51 -4 -97 -9 -101 -12 -5 -2 -26
-7 -47 -11 -20 -3 -82 -19 -137 -36 -147 -43 -253 -89 -406 -175 -51 -29 -96
-53 -100 -53 -3 0 -4 35 -1 77 3 43 4 104 2 135 l-3 58 -132 -5 c-594 -20
-688 -31 -717 -86 -20 -36 -18 -113 4 -190 19 -66 24 -74 46 -75 135 -7 218
-100 235 -264 3 -36 8 -72 10 -80 16 -61 24 -884 12 -1275 l-3 -120 -120 -5
c-68 -3 -129 -11 -142 -18 -66 -37 -73 -123 -25 -286 l9 -29 524 0 c289 1 542
4 563 7 88 14 111 52 105 170 -3 45 -12 98 -21 119 l-16 37 -85 0 c-82 0 -86
1 -87 23 0 12 -2 65 -5 117 -10 222 -7 1137 4 1200 29 162 75 235 185 290 55
27 71 31 137 29 194 -5 299 -119 340 -369 6 -41 14 -86 18 -100 6 -26 10 -953
4 -1101 l-3 -86 -65 -6 c-103 -8 -137 -43 -137 -142 0 -44 26 -172 38 -183 7
-7 1036 -4 1075 3 51 9 77 29 90 71 16 46 8 155 -15 212 l-17 42 -132 0 -132
0 -3 88 c-7 196 -5 1191 2 1242 17 120 48 193 104 246 136 128 375 105 476
-46 45 -68 77 -171 92 -305 4 -27 9 -61 12 -75 2 -14 6 -304 8 -645 2 -425 7
-636 14 -670 21 -87 55 -124 137 -149 30 -9 171 -15 394 -16 278 -2 350 10
384 62 28 43 26 164 -5 239 -8 21 -19 27 -53 31 -107 12 -149 61 -161 188 -13
135 -14 171 -20 575 -7 547 -13 805 -19 835 -3 13 -8 42 -11 65 -7 52 -41 158
-66 207 -58 114 -207 209 -369 234 -19 3 -38 8 -43 11 -17 11 -249 3 -327 -11
-112 -20 -295 -75 -396 -119 -81 -35 -211 -102 -228 -118 -16 -15 -22 -11 -50
31 -42 64 -67 89 -125 128 -71 47 -170 79 -267 87 -43 4 -91 8 -106 10 -15 2
-28 2 -30 0z"/>
</g>
</svg>
