<?xml version="1.0" encoding="utf-8"?>
<!-- Generator: Adobe Illustrator 28.7.1, SVG Export Plug-In . SVG Version: 9.03 Build 54978)  -->
<svg version="1.0" id="Calque_1" xmlns="http://www.w3.org/2000/svg" xmlns:xlink="http://www.w3.org/1999/xlink" x="0px" y="0px"
	 viewBox="0 0 338.8 81.8" style="enable-background:new 0 0 338.8 81.8;" xml:space="preserve">
<style type="text/css">
	.st0{fill:#6F6F6E;}
	.st1{fill:#B1B1B1;}
</style>
<g>
	<g>
		<path class="st0" d="M32.9,62.6h3.5c0.4,0.7,0.6,1.5,0.6,2.4c0,0.8-0.2,1.3-0.5,1.6c-0.3,0.3-0.9,0.5-1.8,0.5H21.3
			c-0.4-0.9-0.5-1.8-0.5-2.5c0-0.7,0.2-1.1,0.5-1.4c0.3-0.3,0.8-0.4,1.4-0.4h0.8c0.1-3.8,0.2-7.5,0.2-11.2c0-4.4-0.4-7.3-1.2-8.8
			c-0.8-1.5-2.1-2.2-3.9-2.2c-1.1,0-2.1,0.4-3,1.3c-0.9,0.9-1.3,2.8-1.3,5.6v6.5c0,2.7,0.1,5.6,0.2,8.8h2.3c0.4,0.7,0.5,1.5,0.5,2.4
			c0,0.8-0.2,1.3-0.5,1.6c-0.3,0.3-0.9,0.5-1.8,0.5H1.3c-0.4-0.9-0.6-1.8-0.6-2.5c0-0.7,0.2-1.1,0.5-1.4c0.3-0.3,0.8-0.4,1.5-0.4H5
			c0.1-3.5,0.2-7.2,0.2-11c0-6-0.3-9.6-0.9-10.7c-0.6-1.1-1.6-1.6-3-1.6c-0.4-0.9-0.6-1.7-0.6-2.6c0-0.8,0.3-1.3,0.9-1.5
			c0.6-0.2,4.1-0.5,10.7-0.6c0.1,0.9,0.1,2.1,0,3.7c2.3-1.5,4.5-2.5,6.6-3.1c2.1-0.6,3.8-0.9,5.4-0.9c2.1,0,3.8,0.3,4.9,1
			c1.1,0.7,1.9,1.5,2.4,2.6c1.9-1.2,3.9-2.1,5.9-2.7c2-0.6,3.7-0.9,5.2-0.9c2.8,0,5,0.7,6.4,2c1.5,1.3,2.2,4,2.2,8.1
			c0,10.6,0.2,16.3,0.6,17.1c0.4,0.8,1.2,1.2,2.5,1.2c0.3,0.8,0.5,1.6,0.5,2.4c0,0.8-0.3,1.3-0.8,1.6c-0.5,0.3-1.5,0.4-2.9,0.4
			c-3.5,0-5.7-0.1-6.6-0.2c-0.9-0.1-1.6-0.5-1.9-1c-0.3-0.6-0.5-1.6-0.5-3V51.4c0-4.4-0.4-7.3-1.2-8.8c-0.8-1.5-2.1-2.2-3.9-2.2
			c-1.1,0-2.1,0.4-3,1.3s-1.3,2.8-1.3,5.6C32.7,55,32.8,60,32.9,62.6z"/>
		<path class="st0" d="M74.1,66.7c-2.1,0.6-4,1-5.8,1c-3.1,0-5.4-0.7-6.9-2.2c-1.5-1.4-2.2-3.5-2.2-6.1c0-3.6,1.2-6.3,3.7-8.1
			c2.5-1.8,6.4-2.6,11.8-2.6h3.5c-0.2-3.3-0.7-5.6-1.6-6.8c-0.9-1.2-2.3-1.8-4.1-1.8c-1,0-2.1,0.1-3.2,0.4c-0.8,1.4-1.2,2.2-1.3,2.3
			c-0.1,0.1-0.9,0.3-2.2,0.6c-1.3,0.3-2.3,0.2-2.9-0.3c-0.6-0.5-1.1-1.4-1.7-2.6c-0.6-1.2-0.9-2.3-0.9-3.2c0-0.5,0.2-1,0.7-1.3
			c0.4-0.3,2.1-0.6,4.9-1c2.8-0.3,5.8-0.5,9-0.5c3.8,0,6.8,0.6,8.9,2c2.1,1.3,3.2,3.8,3.2,7.6v8.5c0,4.8,0.2,7.7,0.6,8.8
			c0.4,1.1,1.1,1.5,2.2,1.3c0.3,0.6,0.5,1.2,0.5,1.8c0,1-0.6,1.7-1.7,2.2c-1.2,0.5-2.7,0.8-4.7,0.8c-0.9,0-1.5-0.1-2-0.3
			c-0.5-0.2-1.3-1-2.3-2.5C78,65.4,76.1,66.1,74.1,66.7z M78.2,53.8c-1.5-0.3-3.1-0.5-4.7-0.5c-1.8,0-3.1,0.3-3.9,0.9
			c-0.8,0.6-1.2,1.7-1.2,3.4c0,1.5,0.4,2.6,1.1,3.3c0.8,0.7,1.9,1.1,3.3,1.1c1.2,0,2.2-0.2,3.1-0.7c0.9-0.5,1.5-1.2,1.8-2.1
			c0.3-0.9,0.4-2.1,0.4-3.6V53.8z"/>
		<path class="st0" d="M121.6,38.5c1.1,2.2,1.6,4.4,1.6,6.6c0,3.8-1.3,6.9-3.8,9.1c-2.5,2.3-6.3,3.4-11.2,3.4c-2.1,0-3.5,0.2-4,0.6
			c-0.5,0.4-0.8,1-0.8,1.9c0,0.8,0.3,1.5,1,1.9s4.1,0.6,10.4,0.6c5.4,0,9,0.6,10.8,1.8c1.7,1.2,2.6,3,2.6,5.3c0,3.5-1.9,6.3-5.7,8.4
			c-3.8,2-9.7,3.1-17.8,3.1c-3.7,0-6.2-0.5-7.4-1.4c-1.2-0.9-1.8-2.3-1.8-4c0-1.2,0.3-2.5,1-3.8c0.7-1.3,1.6-2.5,2.8-3.7
			c-1.1-0.4-2-1-2.7-1.9c-0.7-0.9-1-2-1-3.2c0-1.5,0.5-2.8,1.5-4c1-1.1,2.4-2.1,4.1-2.9c-1.4-0.6-2.6-1.7-3.5-3.2
			c-0.9-1.5-1.4-3.5-1.4-5.8c0-3.8,1.3-7,3.8-9.5c2.5-2.5,6.3-3.8,11.3-3.8c2.5,0,5,0.4,7.4,1.3c3.1-1.4,4.9-2.2,5.5-2.2
			c3.1,0,4.8,0.1,5.1,0.2c0.3,0.2,0.5,0.5,0.5,0.9c0,0.6-0.3,1.6-0.9,2.8c-0.6,1.2-1.2,1.9-1.8,1.9c-0.6,0-2.2-0.5-4.8-1.5
			L121.6,38.5z M103.3,70.8c-0.3,0.8-0.4,1.5-0.4,2.2c0,1.3,0.4,2.2,1.2,2.7c0.8,0.5,2.3,0.8,4.7,0.8c3.3,0,5.8-0.4,7.5-1.1
			c1.6-0.8,2.5-1.9,2.5-3.4c0-1.2-0.6-2.1-1.8-2.6c-1.2-0.5-5.3-0.7-12.4-0.7C104,69.4,103.6,70.1,103.3,70.8z M106.1,40.3
			c-0.8,1-1.1,2.9-1.1,5.7c0,2.6,0.4,4.5,1.2,5.5c0.8,1,1.9,1.5,3.5,1.5c1.6,0,2.7-0.5,3.5-1.4c0.8-1,1.1-2.9,1.1-5.7
			c0-2.5-0.4-4.2-1.2-5.3s-2-1.7-3.5-1.7C108,38.8,106.9,39.3,106.1,40.3z"/>
		<path class="st0" d="M152.1,46.5c0.4,0.9,0.6,2.2,0.6,3.7c0,1.1-0.2,1.8-0.6,2.2c-0.4,0.4-1,0.7-2,0.7h-16.5
			c-0.4-1.2-0.6-2.4-0.6-3.7c0-1.2,0.2-1.9,0.6-2.3c0.4-0.4,0.9-0.6,1.6-0.6H152.1z"/>
		<path class="st0" d="M158.3,35.2c0.6-0.2,4.1-0.5,10.7-0.6c0.1,0.9,0.1,2.2,0,3.7c2.7-1.6,5.2-2.7,7.4-3.2
			c2.2-0.6,4.1-0.8,5.8-0.8c0.8,0,1.3,0.1,1.5,0.3c0.3,0.2,0.4,0.6,0.4,1.3c0,1.2-0.2,2.4-0.5,3.7c-0.4,1.3-0.8,2.1-1.3,2.5
			c-0.5,0.4-1.4,0.6-2.5,0.8c-1.1,0.2-1.8,0.2-2,0.1c-0.2-0.1-0.8-0.8-1.8-2.2c-1.6,0-2.8,0.6-3.7,1.7c-0.8,1.2-1.3,4.1-1.3,8.9
			c0,4.4,0.1,8.1,0.2,11.3h5.1c0.4,0.7,0.6,1.5,0.6,2.4c0,0.8-0.2,1.3-0.5,1.6c-0.3,0.3-0.9,0.5-1.8,0.5h-16.4
			c-0.4-0.9-0.6-1.8-0.6-2.5c0-0.7,0.2-1.1,0.5-1.4c0.3-0.3,0.8-0.4,1.5-0.4h2.4c0.1-3.2,0.2-6.8,0.2-11c0-6-0.3-9.6-0.9-10.7
			c-0.6-1.1-1.6-1.6-3-1.6c-0.4-0.9-0.6-1.7-0.6-2.6C157.5,35.9,157.8,35.4,158.3,35.2z"/>
		<path class="st0" d="M213.7,37.2c2,2,3,5.2,3,9.6c0,2.2-0.4,3.7-1.3,4.6c-0.9,0.9-2.7,1.4-5.6,1.4h-12c0.1,2.8,0.7,5,1.9,6.6
			c1.2,1.6,3.3,2.4,6.4,2.4c3,0,6-0.9,9.2-2.6c1.1,1.1,1.7,2.3,1.7,3.5c0,1.7-1.3,2.9-3.8,3.6c-2.5,0.7-5.5,1-8.9,1
			c-5.8,0-10.1-1.2-12.7-3.5c-2.6-2.4-4-6.3-4-11.7c0-5.7,1.5-10.1,4.5-13.3c3-3.2,7-4.8,12-4.8C208.4,34.2,211.7,35.2,213.7,37.2z
			 M199,41.7c-0.8,1.3-1.3,3.5-1.3,6.7h1.7c2.4,0,4.2-0.1,5.5-0.2c1.3-0.1,2-0.4,2.2-0.7s0.3-0.9,0.3-1.7c0-1.9-0.4-3.4-1.3-4.5
			c-0.8-1.1-2-1.6-3.5-1.6C201.1,39.8,199.8,40.4,199,41.7z"/>
		<path class="st0" d="M236.5,66.7c-2.1,0.6-4,1-5.8,1c-3.1,0-5.4-0.7-6.9-2.2c-1.5-1.4-2.2-3.5-2.2-6.1c0-3.6,1.2-6.3,3.7-8.1
			c2.5-1.8,6.4-2.6,11.8-2.6h3.5c-0.2-3.3-0.7-5.6-1.6-6.8c-0.9-1.2-2.3-1.8-4.1-1.8c-1,0-2.1,0.1-3.2,0.4c-0.8,1.4-1.2,2.2-1.3,2.3
			c-0.1,0.1-0.9,0.3-2.2,0.6c-1.3,0.3-2.3,0.2-2.9-0.3c-0.6-0.5-1.1-1.4-1.7-2.6c-0.6-1.2-0.9-2.3-0.9-3.2c0-0.5,0.2-1,0.7-1.3
			c0.4-0.3,2.1-0.6,4.9-1c2.8-0.3,5.8-0.5,9-0.5c3.8,0,6.8,0.6,8.9,2c2.1,1.3,3.2,3.8,3.2,7.6v8.5c0,4.8,0.2,7.7,0.6,8.8
			c0.4,1.1,1.1,1.5,2.2,1.3c0.3,0.6,0.5,1.2,0.5,1.8c0,1-0.6,1.7-1.7,2.2c-1.2,0.5-2.7,0.8-4.7,0.8c-0.9,0-1.5-0.1-2-0.3
			c-0.5-0.2-1.3-1-2.3-2.5C240.4,65.4,238.6,66.1,236.5,66.7z M240.7,53.8c-1.5-0.3-3.1-0.5-4.7-0.5c-1.8,0-3.1,0.3-3.9,0.9
			c-0.8,0.6-1.2,1.7-1.2,3.4c0,1.5,0.4,2.6,1.1,3.3c0.8,0.7,1.9,1.1,3.3,1.1c1.2,0,2.2-0.2,3.1-0.7c0.9-0.5,1.5-1.2,1.8-2.1
			c0.3-0.9,0.4-2.1,0.4-3.6V53.8z"/>
		<path class="st0" d="M273.8,67c-1.7,0.4-3.4,0.7-5.1,0.7c-3.7,0-6.5-1.1-8.4-3.3c-2-2.2-3-6-3-11.3c0-6.4,1.5-11.2,4.5-14.2
			c3-3.1,7.1-4.6,12.2-4.6c0.9,0,1.7,0,2.3,0.1c0.6,0,1.2,0.1,1.8,0.2c0-0.8,0-1.9-0.1-3.2c-0.1-1.3-0.2-2.4-0.5-3.3
			c-0.2-0.9-0.6-1.5-1.2-1.8c-0.6-0.3-1.4-0.4-2.3-0.4c-0.4-0.9-0.6-1.8-0.6-2.6c0-0.9,0.3-1.5,1-1.7c0.7-0.2,2.8-0.4,6.5-0.4
			c2.3,0,3.8,0.1,4.7,0.3c0.8,0.2,1.3,0.5,1.4,1c0.1,0.5,0.2,1.2,0.2,2.1v22.9c0,7.5,0.2,12,0.6,13.4c0.4,1.4,1.1,2,2,1.9
			c0.4,0.6,0.6,1.2,0.6,1.9c0,0.8-0.9,1.5-2.8,2.2c-1.9,0.7-3.3,1-4.4,1c-0.7,0-1.2-0.2-1.6-0.5c-0.4-0.3-1-1.2-1.9-2.6
			C277.5,65.7,275.5,66.6,273.8,67z M269,41.8c-1,1.4-1.4,4.4-1.4,9c0,3.8,0.4,6.6,1.3,8.5c0.8,1.9,2.2,2.8,4.2,2.8
			c1.2,0,2.2-0.2,3-0.7c0.8-0.5,1.4-1.1,1.7-1.9c0.3-0.8,0.4-2.5,0.4-5.3v-13c-0.7-0.4-1.5-0.7-2.3-1c-0.8-0.3-1.7-0.4-2.7-0.4
			C271.3,39.8,270,40.5,269,41.8z"/>
	</g>
	<g>
		<path class="st0" d="M24.6,5c2.8-3.2,6.1-4.8,9.8-4.8c0.9,0,1.7,0.2,2.2,0.6c0.5,0.4,0.8,1.1,0.8,2.1c0,1.2-0.3,2.4-0.9,3.5
			C34.7,6,33,6.1,31.5,6.7c-1.5,0.6-2.4,2.3-2.7,5.1c1.5,0.4,2.7,1.1,3.4,2c0.7,0.9,1,2,1,3.2c0,1.7-0.6,3.1-1.8,4.1
			c-1.2,1.1-2.8,1.6-4.8,1.6c-2,0-3.6-0.6-4.7-1.7c-1.1-1.2-1.6-2.9-1.6-5.1C20.4,11.8,21.8,8.2,24.6,5z"/>
	</g>
</g>
<g>
	<path class="st1" d="M300.8,67.7v-4.6h4.6v4.6H300.8z"/>
	<path class="st1" d="M313.4,67.7V47h-3.6v-3.1h3.6v-2.5c0-1.6,0.1-2.8,0.4-3.6c0.4-1,1.1-1.9,2.1-2.5s2.4-1,4.1-1
		c1.1,0,2.4,0.1,3.8,0.4l-0.6,3.5c-0.8-0.1-1.6-0.2-2.4-0.2c-1.2,0-2.1,0.3-2.6,0.8c-0.5,0.5-0.8,1.5-0.8,2.9v2.2h4.6V47h-4.6v20.7
		H313.4z"/>
	<path class="st1" d="M325.2,67.7V43.8h3.6v3.6c0.9-1.7,1.8-2.8,2.6-3.3c0.8-0.5,1.7-0.8,2.6-0.8c1.4,0,2.7,0.4,4.2,1.3l-1.4,3.7
		c-1-0.6-2-0.9-3-0.9c-0.9,0-1.7,0.3-2.4,0.8c-0.7,0.5-1.2,1.3-1.5,2.2c-0.5,1.4-0.7,3-0.7,4.7v12.5H325.2z"/>
</g>
</svg>
